<svg id="Layer_1" enable-background="new 0 0 24 24" height="512" viewBox="0 0 24 24" width="512" xmlns="http://www.w3.org/2000/svg"><circle cx="12" cy="12" fill="#2f80ed" r="12"/><g><g><path d="m6.5 20c-.1 0-.3-.1-.4-.1-.4-.2-.4-.7-.2-1l5.5-8c.2-.4.7-.4 1-.2.4.2.4.7.2 1l-5.5 8c-.1.2-.3.3-.6.3z" fill="#fff"/></g><g><path d="m17.5 20c-.2 0-.4-.1-.6-.3l-5.5-8c-.2-.4-.1-.8.2-1 .4-.2.8-.1 1 .2l5.5 8c.2.4.1.8-.2 1-.2 0-.3.1-.4.1z" fill="#fff"/></g><g><path d="m5.9 12.1c0-.3-.1-.6-.1-.8 0-.9.1-1.7.5-2.5 0-.1.1-.1.1-.2l1.3.7c0 .1-.1.1-.1.1-.2.6-.4 1.2-.4 1.9 0 .2 0 .4.1.7z" fill="#fff"/></g><g><path d="m10.8 17.3c-1.7-.3-3.1-1.4-4.1-2.8l1.2-.7c.7 1.2 1.8 2 3.1 2.2z" fill="#fff"/></g><g><path d="m13.2 17.3-.3-1.5c1.3-.3 2.5-1.1 3.1-2.3l1.2.7c-.8 1.7-2.3 2.8-4 3.1z" fill="#fff"/></g><g><path d="m18.1 12.1-1.5-.2c0-.2.1-.4.1-.7 0-.7-.1-1.4-.4-2l1.3-.7c.4.9.7 1.7.7 2.7-.1.4-.1.7-.2.9z" fill="#fff"/></g><g><path d="m15.1 7.8c-.7-.6-1.4-.9-2.2-1.1l.3-1.5c1.1.2 2 .7 2.9 1.5z" fill="#fff"/></g><g><path d="m8.7 7.9-1-1 .2-.2c.8-.7 1.8-1.2 2.9-1.5l.3 1.5c-.8.1-1.6.6-2.2 1.1-.1 0-.2.1-.2.1z" fill="#fff"/></g><g><path d="m6.9 14.9c-1 0-1.8-.8-1.8-1.8s.8-1.8 1.8-1.8 1.8.8 1.8 1.8-.8 1.8-1.8 1.8zm0-2.2c-.2 0-.4.1-.4.4s.1.4.4.4.4-.1.4-.4-.2-.4-.4-.4z" fill="#fff"/></g><g><path d="m12 18.5c-1 0-1.8-.8-1.8-1.8s.8-1.8 1.8-1.8 1.8.8 1.8 1.8-.8 1.8-1.8 1.8zm0-2.1c-.2 0-.4.1-.4.4 0 .2.1.4.4.4s.4-.1.4-.4-.2-.4-.4-.4z" fill="#fff"/></g><g><path d="m12 7.6c-1 0-1.8-.8-1.8-1.8s.8-1.8 1.8-1.8 1.8.8 1.8 1.8-.8 1.8-1.8 1.8zm0-2.1c-.2 0-.4.1-.4.4 0 .2.1.4.4.4s.4-.1.4-.4-.2-.4-.4-.4z" fill="#fff"/></g><g><path d="m7.6 9.8c-1 0-1.8-.8-1.8-1.8s.8-1.8 1.8-1.8 1.9.8 1.9 1.8-.8 1.8-1.9 1.8zm0-2.2c-.2 0-.3.2-.3.4s.1.4.4.4c.2 0 .3-.2.3-.4s-.1-.4-.4-.4z" fill="#fff"/></g><g><path d="m16.4 9.8c-1 0-1.8-.8-1.8-1.8s.8-1.8 1.8-1.8 1.8.8 1.8 1.8-.8 1.8-1.8 1.8zm0-2.2c-.3 0-.4.2-.4.4s.1.4.4.4.4-.1.4-.4c-.1-.2-.2-.4-.4-.4z" fill="#fff"/></g><g><path d="m17.1 14.9c-1 0-1.8-.8-1.8-1.8s.8-1.8 1.8-1.8 1.8.8 1.8 1.8-.8 1.8-1.8 1.8zm0-2.2c-.2 0-.4.1-.4.4s.1.4.4.4c.2 0 .4-.1.4-.4s-.2-.4-.4-.4z" fill="#fff"/></g><g><path d="m12 12.7c.8 0 1.5-.7 1.5-1.5s-.7-1.4-1.5-1.4-1.5.7-1.5 1.5.7 1.4 1.5 1.4z" fill="#fff"/></g><g><path d="m8.4 20h-2.9c-.4 0-.7-.3-.7-.7s.3-.7.7-.7h2.9c.4 0 .7.3.7.7s-.3.7-.7.7z" fill="#fff"/></g><g><path d="m18.5 20h-2.9c-.4 0-.7-.3-.7-.7s.3-.7.7-.7h2.9c.4 0 .7.3.7.7.1.4-.2.7-.7.7z" fill="#fff"/></g></g></svg>