<svg id="Layer_1" enable-background="new 0 0 512 512" height="512" viewBox="0 0 512 512" width="512" xmlns="http://www.w3.org/2000/svg"><g><g><path d="m256 17.2c54.3 0 256 16.9 256 233.5s-150.2 244.1-256 244.1-256-27.6-256-244.2 201.7-233.4 256-233.4z" fill="#495a77"/><path d="m258.4 467.1c301.8 0 255.3-280.6 138.6-300.6-116.7-20.1-142.2 71-142.2 71s-25.5-91-142.2-71-163.4 300.6 138.5 300.6z" fill="#fff"/><g fill="#000100"><path d="m106.3 282.1c-6.6 0-11.8 5.3-11.8 11.8v10.2c0 6.6 5.3 11.8 11.8 11.8 6.6 0 11.8-5.3 11.8-11.8v-10.2c0-6.5-5.4-11.8-11.8-11.8z"/><path d="m403.1 282.1c-6.6 0-11.8 5.3-11.8 11.8v10.2c0 6.6 5.2 11.8 11.8 11.8s11.8-5.3 11.8-11.8v-10.2c0-6.5-5.2-11.8-11.8-11.8z"/></g></g><g><path d="m256 308.6c-12.8 1.9-41.1 25.7-49.6 62 16.7 32.1 49.2 34.2 49.2 34.2s33.3-2.2 50-34.2c-8.5-36.4-36.9-60.1-49.6-62z" fill="#f29222"/><path d="m256 308.6c-1.1.2-34.9 7.7-49.6 62 13.8 11.6 43.8 12.5 47.8 12.5s36.5-.1 51.3-12.6c-14.6-54.3-48.4-61.7-49.5-61.9z" fill="#fcc30e"/></g></g></svg>