<svg id="Capa_1" enable-background="new 0 0 512 512" height="512" viewBox="0 0 512 512" width="512" xmlns="http://www.w3.org/2000/svg"><g><path d="m95.15.006c-35.17.456-63.15 29.774-63.15 64.948v383.046l128 14 12-207.875-12-190.125c0-35.629-29.114-64.458-64.85-63.994z" fill="#d9e6fb"/><path d="m480 0v448h-64l-256 14v-398c0-35.35 28.65-64 64-64z" fill="#edf2fa"/><path d="m480 0v448h-64l-96 5.25v-453.25z" fill="#d9e6fb"/><path d="m416 448v64h-320c-35.35 0-64-28.65-64-64s28.65-64 64-64 64 28.65 64 64z" fill="#e63981"/><path d="m224 448h192v64h-192z" fill="#b50e8e"/><path d="m214.62 58.38v90.24h210.76v-90.24z" fill="#2ec5db"/><path d="m320 58.38h105.38v90.24h-105.38z" fill="#2498d6"/><path d="m425.375 389.625h-90.25v-90.25h90.25z" fill="#f28d35"/><g fill="#5a5a8b"><path d="m214.625 359.625h90.25v30h-90.25z"/><path d="m214.625 299.375h90.25v30h-90.25z"/><path d="m214.62 178.88h210.76v30h-210.76z"/><path d="m214.62 239.12h210.76v30h-210.76z"/></g><path d="m320 178.88h105.38v30h-105.38z" fill="#42446a"/><path d="m320 239.12h105.38v30h-105.38z" fill="#42446a"/></g></svg>