<svg height="512pt" viewBox="0 0 512 512" width="512pt" xmlns="http://www.w3.org/2000/svg"><path d="m388.332031.898438-138.589843 84.835937-15.074219 190.386719 15.074219 214.546875h138.589843zm0 0" fill="#292929"/><path d="m177 130.261719v360.40625h72.742188v-404.933594zm0 0" fill="#4f4f4f"/><path d="m249.667969 186.738281-42.667969-53.332031v-22.285156l-53.332031-53.335938v-57.785156h-14.265625l-11.402344 246.332031 11.402344 244.335938h110.265625zm0 0" fill="#fdae02"/><path d="m123.667969 0v57.785156l-53.335938 53.335938v22.285156l-42.664062 53.332031v303.929688h111.734375v-490.667969zm0 0" fill="#fdcb02"/><path d="m91.667969 213.332031h30v42.667969h-30zm0 0" fill="#f3fffb"/><path d="m155.667969 213.332031h30v42.667969h-30zm0 0" fill="#e8f0f3"/><path d="m91.667969 298.667969h30v42.667969h-30zm0 0" fill="#f3fffb"/><path d="m155.667969 298.667969h30v42.667969h-30zm0 0" fill="#e8f0f3"/><path d="m91.667969 384h30v42.667969h-30zm0 0" fill="#f3fffb"/><path d="m155.667969 384h30v42.667969h-30zm0 0" fill="#e8f0f3"/><g fill="#12b0ff"><path d="m315.667969 501.332031h168.664062v-72.5l-89.664062-12.832031-79 12.832031zm0 0"/><path d="m315.667969 398.832031 79 17.167969 89.664062-17.167969v-55.332031l-89.664062-12.832031-79 12.832031zm0 0"/><path d="m484.332031 145h-168.664062v83.167969l79 6.5 89.664062-6.5zm0 0"/><path d="m315.667969 258.167969v55.332031l79 17.167969 89.664062-17.167969v-55.332031l-89.664062-12.835938zm0 0"/></g><path d="m315.667969 228.167969h168.664062v30h-168.664062zm0 0" fill="#95e6fa"/><path d="m315.667969 313.5h168.664062v30h-168.664062zm0 0" fill="#95e6fa"/><path d="m315.667969 398.832031h168.664062v30h-168.664062zm0 0" fill="#95e6fa"/><path d="m512 482h-262l-10.332031 19.332031 10.332031 10.667969h262zm0 0" fill="#676e74"/><path d="m0 482h250v30h-250zm0 0" fill="#8d9ca8"/></svg>