<svg id="svg5" height="512" viewBox="0 0 64 64" width="512" xmlns="http://www.w3.org/2000/svg" xmlns:svg="http://www.w3.org/2000/svg"><g id="layer1" fill-rule="evenodd" transform="translate(-288 -288)"><path id="path26975" d="m293.00349 297.00724h54v6h-54z" fill="#3e4f59" stroke-linecap="round" stroke-linejoin="round" stroke-miterlimit="4.1" stroke-width="2"/><path id="path26977" d="m293.0035 303.00724h53.99999v40h-53.99999z" fill="#acbec2" stroke-linecap="round" stroke-linejoin="round" stroke-miterlimit="4.1" stroke-width="2"/><path id="path26979" d="m293.00349 303.00724v40h34.76953c11.7968-10.64648 19.0867-26.30266 18.625-40z" fill="#e8edee"/><g stroke-linecap="round" stroke-linejoin="round" stroke-miterlimit="4.1"><path id="path26983" d="m343.00349 299.00724c-.55228 0-1 .44772-1 1 0 .55229.44772 1 1 1 .55229 0 1-.44771 1-1 0-.55228-.44771-1-1-1z" fill="#ed7161"/><path id="path26985" d="m339.00349 299.00724c-.55228 0-1 .44772-1 1 0 .55229.44772 1 1 1 .55229 0 1-.44771 1-1 0-.55228-.44771-1-1-1z" fill="#ecba16"/><path id="path26987" d="m335.00349 299.00724c-.55228 0-1 .44772-1 1 0 .55229.44772 1 1 1 .55229 0 1-.44771 1-1 0-.55228-.44771-1-1-1z" fill="#42b05c"/><path id="path21765" d="m317.00349 307.0756a1 1 0 0 0 -1 1v28.86328a1 1 0 0 0 1 1 1 1 0 0 0 1-1v-28.86328a1 1 0 0 0 -1-1z" fill="#3e4f59"/><path id="path21771" d="m308.00349 326.00724a1 1 0 0 0 -1 1 1 1 0 0 0 1 1h5a1 1 0 0 0 1-1 1 1 0 0 0 -1-1z" fill="#3e4f59"/><path id="path21777" d="m301.00349 326.00724a1 1 0 0 0 -1 1 1 1 0 0 0 1 1h3a1 1 0 0 0 1-1 1 1 0 0 0 -1-1z" fill="#3e4f59"/><path id="path21783" d="m301.00349 332.00724a1 1 0 0 0 -1 1 1 1 0 0 0 1 1h12a1 1 0 0 0 1-1 1 1 0 0 0 -1-1z" fill="#3e4f59"/><path id="path21789" d="m330.00349 309.00724a1 1 0 0 0 -1 1 1 1 0 0 0 1 1h9a1 1 0 0 0 1-1 1 1 0 0 0 -1-1z" fill="#3e4f59"/><path id="path6610" d="m322.00349 309.00724c-.55228 0-1 .44771-1 1 0 .55228.44772 1 1 1 .55229 0 1-.44772 1-1 0-.55229-.44771-1-1-1z" fill="#3e4f59"/><path id="path21801" d="m330.00349 325.00724a1 1 0 0 0 -1 1 1 1 0 0 0 1 1h9a1 1 0 0 0 1-1 1 1 0 0 0 -1-1z" fill="#3e4f59"/><path id="path6614" d="m322.00349 325.00724c-.55228 0-1 .44771-1 1 0 .55228.44772 1 1 1 .55229 0 1-.44772 1-1 0-.55229-.44771-1-1-1z" fill="#3e4f59"/><path id="path21795" d="m322.00349 317.00724a1 1 0 0 0 -1 1 1 1 0 0 0 1 1h17a1 1 0 0 0 1-1 1 1 0 0 0 -1-1z" fill="#3e4f59"/><path id="path21807" d="m322.00349 334.00724a1 1 0 0 0 -1 1 1 1 0 0 0 1 1h17a1 1 0 0 0 1-1 1 1 0 0 0 -1-1z" fill="#3e4f59"/></g><path id="path16444" d="m310.0035 312.00724a2.99999 2.99999 0 0 1 -2.99999 3 2.99999 2.99999 0 0 1 -2.99999-3 2.99999 2.99999 0 0 1 2.99999-2.99998 2.99999 2.99999 0 0 1 2.99999 2.99998z" fill="#ffa221"/><path id="path16448" d="m305.8297 309.25139a2.99999 2.99999 0 0 0 -1.82617 2.75586 2.99999 2.99999 0 0 0 3 3 2.99999 2.99999 0 0 0 .68555-.0801 5.7604036 9.6529589 0 0 0 -1.85938-5.67578z" fill="#ffc343" stroke-linecap="round" stroke-linejoin="round" stroke-miterlimit="4.1" stroke-width="2"/><path id="path16446" d="m302.00351 321.00724c0-3.31371 2.23858-6 5-6s4.99998 2.68629 4.99998 6z" fill="#ffa221"/><path id="path16450" d="m307.00353 315.00725c-2.76142 0-5 2.68629-5 6h5.07227a5.7604036 9.6529589 0 0 0 .6875-4.54297 5.7604036 9.6529589 0 0 0 -.0606-1.39844c-.22843-.0384-.46189-.0586-.69917-.0586z" fill="#ffc343" stroke-linecap="round" stroke-linejoin="round" stroke-miterlimit="4.1" stroke-width="2"/></g></svg>