<svg id="Layer_2" height="512" viewBox="0 0 480 480" width="512" xmlns="http://www.w3.org/2000/svg"><g id="Layer_1-2"><g id="DOC"><g id="Base"><path d="m0 232.9 42.91-42.91v42.91z" fill="#00528c"/><path d="m480 232.9-42.91-42.91v42.91z" fill="#00528c"/><path d="m340 0h-274.64c-14.01 0-25.36 11.19-25.36 25v430c0 13.81 11.35 25 25.36 25h349.28c14.01 0 25.36-11.19 25.36-25v-355z" fill="#41a5ee"/><path d="m340 0 100 100h-100z" fill="#d8efff"/><path d="m0 232.9h480v180h-480z" fill="#07c"/><path d="m440 100v100l-100-100z" fill="#258ad4"/><g fill="#d8efff"><rect height="20" rx="10" width="139.48" x="80" y="96.69"/><rect height="20" rx="10" width="230" x="80" y="134.8"/><rect height="20" rx="10" width="230" x="80" y="172.9"/></g></g><g id="DOC-2" fill="#fff"><path d="m96.48 376.26v-106.64h34.35c9.42 0 17.9 2.14 25.42 6.41s13.39 10.3 17.61 18.09 6.36 16.52 6.41 26.18v4.91c0 9.77-2.06 18.52-6.19 26.26s-9.94 13.79-17.43 18.16c-7.5 4.37-15.86 6.58-25.09 6.63zm25.71-86.79v67.02h8.94c7.37 0 13.04-2.62 16.99-7.87 3.96-5.25 5.93-13.05 5.93-23.4v-4.61c0-10.3-1.98-18.07-5.93-23.29-3.96-5.22-9.72-7.84-17.29-7.84h-8.64z"/><path d="m283.76 325.14c0 10.4-1.93 19.6-5.79 27.61s-9.34 14.17-16.44 18.49-15.2 6.48-24.28 6.48-17.14-2.09-24.17-6.26-12.51-10.14-16.44-17.91c-3.93-7.76-5.99-16.67-6.19-26.73v-6.01c0-10.45 1.92-19.67 5.75-27.65s9.33-14.15 16.48-18.49c7.15-4.35 15.29-6.52 24.43-6.52s17.09 2.15 24.17 6.45 12.58 10.41 16.52 18.35c3.93 7.94 5.92 17.03 5.97 27.28v4.91zm-26.15-4.47c0-10.59-1.77-18.64-5.31-24.13s-8.61-8.24-15.2-8.24c-12.89 0-19.7 9.67-20.43 29l-.07 7.84c0 10.45 1.73 18.48 5.2 24.1s8.62 8.42 15.45 8.42 11.5-2.76 15.01-8.28c3.52-5.52 5.3-13.45 5.35-23.8z"/><path d="m383.3 340.15c-.34 7.42-2.34 13.98-6.01 19.67-3.66 5.69-8.8 10.1-15.42 13.22s-14.17 4.69-22.67 4.69c-14.01 0-25.05-4.57-33.11-13.7s-12.08-22.02-12.08-38.67v-5.27c0-10.45 1.82-19.59 5.46-27.43s8.87-13.89 15.71-18.16c6.83-4.27 14.75-6.41 23.73-6.41 12.94 0 23.34 3.41 31.2 10.22s12.33 16.2 13.4 28.16h-25.63c-.2-6.49-1.83-11.16-4.91-13.99s-7.76-4.25-14.06-4.25-11.08 2.39-14.06 7.18-4.54 12.43-4.69 22.92v7.54c0 11.38 1.43 19.51 4.28 24.39 2.86 4.88 7.78 7.32 14.76 7.32 5.91 0 10.42-1.39 13.55-4.17 3.12-2.78 4.78-7.2 4.98-13.26h25.56z"/></g></g></g></svg>