<svg height="512" viewBox="0 0 128 128" width="512" xmlns="http://www.w3.org/2000/svg"><g id="Flat"><g id="Color"><path d="m110 10.5v100a9 9 0 0 1 -9 9h-81a9 9 0 0 1 -9-9v-79.272a9 9 0 0 1 2.636-6.364l20.728-20.728a9 9 0 0 1 6.364-2.636h60.272a9 9 0 0 1 9 9z" fill="#03a9f4"/><path d="m109.816 8.684a8.978 8.978 0 0 1 .184 1.816v100a9 9 0 0 1 -9 9h-81a8.978 8.978 0 0 1 -1.816-.184 9 9 0 0 0 8.816 7.184h81a9 9 0 0 0 9-9v-100a9 9 0 0 0 -7.184-8.816z" fill="#0288d1"/><path d="m31 27.5a6 6 0 0 0 6-6v-19.181a8.991 8.991 0 0 0 -2.636 1.817l-20.728 20.728a8.991 8.991 0 0 0 -1.817 2.636z" fill="#81d4fa"/><rect fill="#eceff1" height="75" rx="3" width="83" x="19" y="36.5"/><path d="m93.5 36.5h-3v7.5h-28.5v-7.5h-3v7.5h-7v-7.5h-3v7.5h-30v3h30v15h-30v3h30v15h-30v3h30v15h-30v3h30v10.5h3v-10.5h7v10.5h3v-10.5h28.5v10.5h3v-10.5h8.5v-3h-8.5v-15h8.5v-3h-8.5v-15h8.5v-3h-8.5v-15h8.5v-3h-8.5zm-34.5 61.5h-7v-15h7zm0-18h-7v-15h7zm0-18h-7v-15h7zm31.5 36h-28.5v-15h28.5zm0-18h-28.5v-15h28.5zm0-18h-28.5v-15h28.5z" fill="#cfd8dc"/><g fill="#0288d1"><path d="m43.5 15h39a1.5 1.5 0 0 0 0-3h-39a1.5 1.5 0 0 0 0 3z"/><path d="m51 20a1.5 1.5 0 0 0 0 3h19a1.5 1.5 0 0 0 0-3z"/></g></g></g></svg>