<svg enable-background="new 0 0 512 512" height="512" viewBox="0 0 512 512" width="512" xmlns="http://www.w3.org/2000/svg"><g id="_x32_5_quiz"><g><path d="m359.554 325.893v130.667c0 28.613-23.138 51.752-51.752 51.752h-234.707c-28.614 0-51.752-23.138-51.752-51.752v-327.902c0-28.56 23.138-51.752 51.752-51.752h119.447c-16.964 25.392-27.003 55.617-27.325 87.827-.483 49.174 21.044 93.464 55.187 123.581 1.772 1.557 2.899 3.704 3.006 6.119l4.402 70.703c.483 7.085 8.536 10.844 14.226 6.657l58.086-42.572c1.825-1.396 4.08-1.933 6.388-1.611 18.858 2.304 36.594 1.571 53.042-1.717z" fill="#cce0f1"/><path d="m132.358 148.965v32.306c0 6.017-4.905 10.921-10.921 10.921h-32.255c-6.017 0-10.921-4.904-10.921-10.921v-32.306c0-6.016 4.904-10.92 10.921-10.92h32.256c6.016 0 10.92 4.904 10.92 10.92z" fill="#d81a60"/><path d="m132.358 243.448v32.306c0 6.017-4.905 10.921-10.921 10.921h-32.255c-6.017 0-10.921-4.904-10.921-10.921v-32.306c0-6.016 4.904-10.92 10.921-10.92h32.256c6.016 0 10.92 4.904 10.92 10.92z" fill="#faa629"/><path d="m132.358 337.931v32.306c0 6.017-4.905 10.921-10.921 10.921h-32.255c-6.017 0-10.921-4.904-10.921-10.921v-32.306c0-6.016 4.904-10.92 10.921-10.92h32.256c6.016-.001 10.92 4.903 10.92 10.92z" fill="#fff"/><path d="m132.358 432.413v32.306c0 6.017-4.905 10.921-10.921 10.921h-32.255c-6.017 0-10.921-4.904-10.921-10.921v-32.306c0-6.016 4.904-10.92 10.921-10.92h32.256c6.016 0 10.92 4.904 10.92 10.92z" fill="#3eb655"/><path d="m359.554 325.893v16.374c-17.062 3.036-34.427 3.603-52.288 1.664l-55.67 40.854c-15.818 11.716-38.545 1.152-39.833-18.574l-4.188-67.75c-37.686-34.411-58.945-82.995-58.408-133.888.268-31.619 9.288-61.629 24.695-87.666h18.682c-16.964 25.392-27.003 55.617-27.325 87.827-.483 49.174 21.044 93.464 55.187 123.581 1.772 1.557 2.899 3.704 3.006 6.119l4.402 70.703c.483 7.085 8.536 10.844 14.226 6.657l58.086-42.572c1.825-1.396 4.08-1.933 6.388-1.611 18.856 2.303 36.592 1.57 53.04-1.718z" opacity=".1"/><path d="m490.656 166.277c0 96.42-84.137 173.975-184.116 161.334-2.335-.322-4.589.242-6.441 1.61l-58.044 42.588c-5.716 4.186-13.766.403-14.25-6.683l-4.348-70.683c-.161-2.415-1.287-4.588-3.058-6.119-34.135-30.109-55.631-74.387-55.147-123.576.806-85.095 69.396-156.664 154.41-160.851 93.629-4.67 170.994 69.878 170.994 162.38z" fill="#d81a60"/><path d="m327.904 233.119c-7.977 0-14.442-6.465-14.442-14.442v-34.446c0-13.054 8.913-24.605 21.2-27.465 13.285-3.091 22.667-14.806 22.813-28.486.165-15.856-13.639-29.872-29.538-29.896-.011 0-.028 0-.039 0-16.275 0-29.476 13.223-29.476 29.577 0 7.977-6.465 14.442-14.442 14.442s-14.442-6.465-14.442-14.442c0-31.878 25.729-58.461 58.359-58.461h.085c31.9.047 58.719 27.182 58.376 59.087-.282 26.641-18.317 49.514-44.008 56.032l-.006 34.057c.002 7.978-6.463 14.443-14.44 14.443z" fill="#fff"/><path d="m317.767 275.616c-5.835-5.714-5.547-15.317 0-20.391 5.314-5.373 15.023-5.373 20.393 0 .637.635 1.269 1.385 1.788 2.194 3.679 5.262 3.236 13.276-1.788 18.196-5.639 5.646-14.919 5.597-20.393.001z" fill="#fff"/><g><path d="m201.317 339.984h-23.487c-2.967 0-5.368-2.404-5.368-5.368 0-2.965 2.401-5.368 5.368-5.368h23.487c2.967 0 5.368 2.404 5.368 5.368s-2.401 5.368-5.368 5.368z" fill="#fff"/></g><g><path d="m209.878 378.923h-32.048c-2.967 0-5.368-2.404-5.368-5.368s2.401-5.368 5.368-5.368h32.048c2.967 0 5.368 2.404 5.368 5.368s-2.401 5.368-5.368 5.368z" fill="#fff"/></g><g><path d="m302.635 434.466h-124.805c-2.967 0-5.368-2.404-5.368-5.368 0-2.965 2.401-5.368 5.368-5.368h124.805c2.967 0 5.368 2.404 5.368 5.368s-2.401 5.368-5.368 5.368z" fill="#fff"/></g><g><path d="m281.837 473.405h-104.007c-2.967 0-5.368-2.404-5.368-5.368s2.401-5.368 5.368-5.368h104.008c2.967 0 5.368 2.404 5.368 5.368s-2.401 5.368-5.369 5.368z" fill="#fff"/></g></g></g></svg>